<?xml version="1.0" standalone="no"?>
<!DOCTYPE svg PUBLIC "-//W3C//DTD SVG 20010904//EN"
 "http://www.w3.org/TR/2001/REC-SVG-20010904/DTD/svg10.dtd">
<svg version="1.0" xmlns="http://www.w3.org/2000/svg"
 width="513.000000pt" height="537.000000pt" viewBox="0 0 513.000000 537.000000"
 preserveAspectRatio="xMidYMid meet">

<g transform="translate(0.000000,537.000000) scale(0.100000,-0.100000)"
fill="#000000" stroke="none">
<path d="M1366 5354 c-146 -35 -280 -142 -397 -317 -119 -178 -301 -577 -389
-852 -51 -161 -107 -395 -131 -543 -23 -147 -30 -167 -114 -312 -69 -121 -153
-305 -199 -440 -212 -626 -170 -1257 118 -1760 115 -201 286 -403 464 -549
277 -227 650 -409 1027 -502 283 -69 313 -72 757 -77 336 -3 427 -1 525 13
895 123 1605 601 1907 1282 124 279 173 543 163 873 -14 453 -143 870 -397
1276 -52 83 -58 98 -74 195 -22 138 -85 396 -131 539 -92 287 -261 660 -386
852 -214 326 -509 422 -776 252 -174 -111 -266 -264 -350 -584 -7 -26 -14 -34
-29 -33 -267 33 -298 35 -469 30 -99 -3 -224 -13 -278 -22 -54 -9 -101 -15
-103 -12 -3 2 -16 45 -29 95 -76 284 -206 470 -390 557 -117 55 -206 66 -319
39z m269 -143 c162 -80 279 -260 338 -517 l14 -62 -66 -17 c-223 -59 -509
-195 -747 -356 -167 -112 -423 -347 -549 -503 -22 -26 -41 -43 -43 -38 -6 20
77 337 132 497 65 192 122 328 221 524 188 376 342 517 557 508 62 -3 89 -10
143 -36z m2077 19 c158 -49 275 -185 438 -510 97 -194 185 -413 247 -615 30
-99 94 -348 90 -351 -2 -2 -42 41 -91 95 -314 352 -754 632 -1194 760 -57 16
-106 32 -109 34 -2 3 7 50 22 104 37 138 102 268 172 343 134 146 267 189 425
140z m-797 -674 c507 -95 935 -323 1310 -700 337 -338 567 -735 685 -1180 156
-592 71 -1158 -243 -1619 -32 -48 -62 -89 -66 -91 -4 -3 6 32 21 77 52 156 71
277 72 447 1 449 -174 680 -514 680 -142 0 -266 -38 -461 -140 -259 -136 -353
-182 -425 -205 -79 -26 -205 -51 -290 -58 l-50 -4 52 51 c41 40 56 63 68 107
19 64 13 91 -17 87 -16 -2 -24 -15 -33 -52 -15 -58 -38 -92 -83 -123 -92 -63
-225 -23 -272 82 -27 58 -24 68 25 88 52 21 124 95 157 158 13 27 24 69 26
109 4 59 2 69 -24 110 -20 30 -48 55 -84 75 -49 27 -62 30 -149 30 -87 0 -100
-3 -149 -30 -107 -59 -140 -167 -86 -282 28 -62 103 -146 146 -163 28 -12 30
-16 24 -49 -18 -99 -91 -161 -189 -161 -102 0 -166 56 -184 163 -7 36 -11 42
-32 42 -23 0 -25 -3 -24 -46 2 -58 32 -116 80 -159 l38 -33 -71 7 c-153 15
-309 70 -503 176 -313 172 -449 220 -618 220 -344 -1 -532 -275 -509 -741 10
-210 70 -424 177 -636 l57 -112 -66 59 c-155 139 -302 336 -400 535 -104 210
-154 380 -182 619 -17 143 -6 430 21 586 166 947 908 1774 1815 2024 103 28
174 43 295 62 121 19 535 12 655 -10z m-1640 -2480 c44 -15 150 -64 235 -108
289 -151 325 -169 417 -198 112 -36 243 -60 329 -60 l64 0 -8 -32 c-4 -18 -7
-112 -7 -208 1 -150 4 -188 24 -265 56 -217 165 -345 291 -345 125 0 228 121
287 336 24 89 27 116 28 264 0 91 -3 183 -7 206 l-8 41 103 6 c117 7 259 41
368 86 41 17 151 72 244 122 308 164 400 194 569 187 135 -6 201 -32 277 -107
99 -100 145 -232 156 -451 12 -243 -51 -499 -185 -754 -41 -78 -57 -96 -127
-153 -307 -247 -676 -417 -1101 -507 -244 -51 -346 -60 -679 -60 -272 0 -328
3 -455 22 -344 54 -581 124 -845 251 -197 95 -248 129 -301 197 -149 192 -269
448 -321 686 -24 113 -25 400 0 507 32 140 104 257 194 312 74 46 140 60 263
55 91 -3 131 -9 195 -30z m1421 -682 c48 -23 100 -87 125 -153 18 -49 19 -61
9 -96 -18 -60 -47 -111 -87 -156 -91 -101 -184 -93 -268 25 -76 108 -81 163
-22 271 59 107 155 150 243 109z"/>
<path d="M1340 5015 c-19 -9 -50 -30 -68 -48 -129 -123 -97 -324 64 -403 48
-23 63 -26 120 -21 48 3 77 12 112 34 54 33 106 111 116 172 14 91 -33 194
-116 248 -35 23 -54 28 -117 31 -52 1 -87 -3 -111 -13z m190 -64 c47 -24 89
-85 96 -143 9 -62 -28 -142 -82 -177 -83 -56 -206 -33 -260 49 -110 166 68
362 246 271z"/>
<path d="M3522 5005 c-151 -77 -179 -269 -57 -390 102 -103 238 -102 342 1 60
59 77 108 71 196 -5 75 -47 142 -112 183 -40 24 -62 30 -120 33 -61 3 -78 0
-124 -23z m161 -36 c44 -12 102 -59 123 -101 21 -41 20 -120 -3 -165 -10 -20
-35 -50 -56 -67 -31 -25 -49 -31 -100 -34 -73 -4 -115 15 -161 72 -25 30 -31
48 -34 100 -6 92 38 161 124 191 48 17 59 18 107 4z"/>
<path d="M1694 3379 c-46 -13 -126 -87 -122 -113 5 -34 34 -30 76 12 59 59
147 72 219 34 30 -17 50 -15 57 4 20 53 -127 93 -230 63z"/>
<path d="M3144 3371 c-51 -23 -61 -38 -41 -59 15 -14 20 -14 55 2 78 35 175
16 227 -46 28 -33 58 -34 63 -2 4 25 -63 89 -114 110 -47 20 -141 17 -190 -5z"/>
<path d="M1747 2749 c-101 -16 -195 -88 -240 -187 -33 -73 -31 -189 6 -264 52
-107 146 -169 267 -176 137 -8 242 53 302 175 28 58 33 77 32 143 0 61 -5 86
-27 132 -61 126 -200 199 -340 177z m14 -94 c34 -18 69 -70 69 -103 0 -31 -25
-77 -52 -96 -13 -9 -43 -16 -68 -16 -70 1 -110 43 -110 117 0 47 22 80 64 99
41 17 61 17 97 -1z m279 -344 c0 -28 -28 -47 -48 -34 -24 15 -27 44 -7 59 22
17 55 1 55 -25z m-162 13 c69 -48 22 -155 -55 -128 -61 21 -68 103 -13 131 33
17 41 16 68 -3z"/>
<path d="M3389 2749 c-101 -16 -198 -91 -242 -188 -31 -68 -29 -188 3 -256
117 -242 460 -246 577 -7 23 48 28 70 28 137 0 67 -5 89 -28 137 -63 128 -199
199 -338 177z m13 -99 c80 -62 46 -190 -54 -206 -70 -12 -128 40 -128 114 0
37 6 50 34 78 29 29 41 34 79 34 29 0 53 -7 69 -20z m253 -335 c0 -25 -4 -30
-24 -30 -32 0 -49 28 -31 50 7 9 23 15 34 13 16 -2 21 -10 21 -33z m-140 5
c42 -47 8 -120 -55 -120 -31 0 -70 39 -70 70 0 10 9 29 21 44 26 33 77 36 104
6z"/>
<path d="M3936 1919 c-70 -11 -190 -73 -224 -114 -33 -43 -41 -72 -29 -108 14
-42 60 -61 147 -60 200 2 390 164 296 252 -39 37 -97 46 -190 30z m158 -42
c103 -68 -126 -234 -295 -214 -84 10 -112 42 -85 96 53 102 291 176 380 118z"/>
<path d="M1160 1913 c-36 -14 -60 -47 -60 -83 0 -75 113 -161 248 -189 66 -14
97 -14 145 0 53 14 77 41 77 86 0 31 -8 44 -53 89 -71 68 -144 97 -257 101
-47 1 -92 0 -100 -4z m140 -23 c118 -22 240 -104 240 -160 0 -123 -336 -64
-406 71 -14 28 -14 33 0 54 26 39 82 51 166 35z"/>
</g>
</svg>
