<?xml version="1.0" encoding="UTF-8"?>
<!DOCTYPE svg PUBLIC "-//W3C//DTD SVG 1.1//EN" "http://www.w3.org/Graphics/SVG/1.1/DTD/svg11.dtd">
<svg xmlns="http://www.w3.org/2000/svg" version="1.1" width="303px" height="254px" style="shape-rendering:geometricPrecision; text-rendering:geometricPrecision; image-rendering:optimizeQuality; fill-rule:evenodd; clip-rule:evenodd" xmlns:xlink="http://www.w3.org/1999/xlink">
<g><path style="opacity:0.612" fill="#101111" d="M 161.5,253.5 C 158.167,253.5 154.833,253.5 151.5,253.5C 148.856,251.031 146.023,248.698 143,246.5C 142.667,245.167 142.333,243.833 142,242.5C 141.692,243.308 141.192,243.975 140.5,244.5C 139.438,239.212 138.771,233.879 138.5,228.5C 137.07,228.579 135.736,228.246 134.5,227.5C 127.499,229.62 120.332,230.953 113,231.5C 105.493,230.193 97.9932,230.193 90.5,231.5C 90.8254,236.599 90.3254,241.599 89,246.5C 84.7792,248.226 80.9458,250.559 77.5,253.5C 74.5,253.5 71.5,253.5 68.5,253.5C 66.5819,252.132 64.4152,251.132 62,250.5C 62.8165,247.397 62.3165,244.397 60.5,241.5C 60.9767,240.522 61.6433,239.689 62.5,239C 66.1122,237.861 69.4456,236.194 72.5,234C 71.3333,232.833 70.1667,231.667 69,230.5C 63.0442,235.229 56.5442,239.062 49.5,242C 46.5,242.667 43.5,242.667 40.5,242C 39.0118,240.283 37.1785,239.116 35,238.5C 34.4926,237.004 34.9926,235.837 36.5,235C 35.4856,232.021 36.1523,229.354 38.5,227C 42.3775,225.631 46.3775,224.798 50.5,224.5C 50.1756,221.306 51.3422,220.306 54,221.5C 54.4952,219.01 55.9952,217.51 58.5,217C 55.7189,213.103 54.0523,208.77 53.5,204C 53.0274,196.512 53.5274,189.012 55,181.5C 59.8129,176.356 64.9795,171.523 70.5,167C 69.552,166.517 68.552,166.351 67.5,166.5C 66.477,163.607 66.477,160.774 67.5,158C 66.4844,157.481 65.8178,156.647 65.5,155.5C 66.0463,153.865 66.3796,152.199 66.5,150.5C 65.5,150.5 64.5,150.5 63.5,150.5C 62.8525,142.531 63.0192,134.531 64,126.5C 64.3603,124.579 65.1936,122.912 66.5,121.5C 65.7579,120.713 64.9246,120.047 64,119.5C 46.3893,125.594 28.8893,132.094 11.5,139C 6.23886,140.526 2.23886,139.026 -0.5,134.5C -0.5,133.167 -0.5,131.833 -0.5,130.5C 23.8018,121.121 48.4684,112.621 73.5,105C 72.3909,103.187 73.0576,102.354 75.5,102.5C 77.6127,99.5804 78.6127,96.2471 78.5,92.5C 78.3333,90.8333 78.1667,89.1667 78,87.5C 75.3758,85.4767 74.5425,82.9767 75.5,80C 73.6063,78.9207 73.273,77.5874 74.5,76C 73.3128,74.9805 72.3128,73.8139 71.5,72.5C 72.5443,70.2324 72.711,67.8991 72,65.5C 70.7612,78.0349 64.9279,80.7016 54.5,73.5C 53.2866,70.9048 51.9532,68.4048 50.5,66C 50.6448,65.228 50.9781,64.5613 51.5,64C 47.7896,62.4448 45.7896,59.6114 45.5,55.5C 41.9691,53.7732 40.6357,51.1065 41.5,47.5C 39.939,44.8625 38.2723,42.3625 36.5,40C 36.796,38.1118 37.296,36.2784 38,34.5C 39.0113,33.6634 40.1779,33.33 41.5,33.5C 40.9995,29.5067 42.4995,27.84 46,28.5C 53.9475,21.0621 63.2809,18.3954 74,20.5C 81.3145,15.9255 89.1479,12.5921 97.5,10.5C 97.5,9.5 97.5,8.5 97.5,7.5C 102.196,7.32935 106.863,6.82935 111.5,6C 123.205,0.803516 135.538,-0.863151 148.5,1C 152.477,1.9964 156.144,3.4964 159.5,5.5C 159.67,6.82207 159.337,7.98873 158.5,9C 161.692,18.7189 162.026,28.5522 159.5,38.5C 161.819,46.0387 158.985,50.3721 151,51.5C 148.106,51.3049 145.939,49.9716 144.5,47.5C 141.385,53.6074 141.052,59.7741 143.5,66C 143.395,68.8653 143.062,71.6986 142.5,74.5C 142.848,76.6967 143.848,78.53 145.5,80C 150.439,78.8824 155.439,77.7158 160.5,76.5C 159.896,65.1146 165.229,60.7812 176.5,63.5C 176.457,66.0878 175.457,68.2544 173.5,70C 183.214,67.878 192.88,64.878 202.5,61C 203.91,60.6322 204.91,59.7989 205.5,58.5C 202.093,55.3816 198.593,52.3816 195,49.5C 192.005,43.5347 190.505,37.2014 190.5,30.5C 200.021,30.5637 208.688,33.2304 216.5,38.5C 219.539,37.8118 221.539,35.9785 222.5,33C 228.242,32.0834 231.908,28.9168 233.5,23.5C 236.794,23.741 239.794,22.9076 242.5,21C 244.282,14.9097 248.282,12.9097 254.5,15C 256.646,15.4788 257.646,16.8121 257.5,19C 256.509,26.0625 255.509,32.8958 254.5,39.5C 255.242,40.2868 256.075,40.9535 257,41.5C 261.433,39.244 266.1,37.5773 271,36.5C 272.473,36.9031 273.806,37.5697 275,38.5C 275.456,39.7441 274.956,40.5774 273.5,41C 275.527,42.3957 275.86,44.0624 274.5,46C 265.72,49.2234 257.054,52.7234 248.5,56.5C 254.888,59.111 261.055,62.111 267,65.5C 270.383,64.4812 272.717,65.8146 274,69.5C 273.208,71.8462 273.375,74.1795 274.5,76.5C 275.5,76.5 276.5,76.5 277.5,76.5C 277.986,78.8067 277.986,80.9734 277.5,83C 286.274,87.451 293.441,93.6177 299,101.5C 300.886,107.747 300.719,114.081 298.5,120.5C 298.931,121.293 299.265,122.127 299.5,123C 296.623,124.863 293.956,127.196 291.5,130C 289.608,130.973 287.608,131.64 285.5,132C 286.308,132.308 286.975,132.808 287.5,133.5C 284.856,134.396 282.19,135.229 279.5,136C 273.199,141.882 265.699,145.049 257,145.5C 253.529,144.545 250.029,144.378 246.5,145C 240.993,148.335 234.993,150.168 228.5,150.5C 219.845,149.826 211.178,149.326 202.5,149C 196.336,147.335 190.836,144.502 186,140.5C 185.612,136.781 184.945,133.114 184,129.5C 183.245,124.046 183.745,118.712 185.5,113.5C 184.167,111.5 184.167,109.5 185.5,107.5C 186.603,107.002 187.603,106.669 188.5,106.5C 187.754,105.264 187.421,103.93 187.5,102.5C 188.5,102.5 189.5,102.5 190.5,102.5C 190.584,95.5766 193.75,90.5766 200,87.5C 200.49,86.2068 200.657,84.8734 200.5,83.5C 204.638,83.0268 206.638,80.6935 206.5,76.5C 211.391,75.6495 213.391,72.9829 212.5,68.5C 191.633,75.6777 170.633,82.6777 149.5,89.5C 149.67,90.8221 149.337,91.9887 148.5,93C 155.094,104.023 160.761,115.523 165.5,127.5C 164.957,137.157 164.624,146.823 164.5,156.5C 163.5,156.5 162.5,156.5 161.5,156.5C 162.523,159.393 162.523,162.226 161.5,165C 165.285,168.268 169.285,171.435 173.5,174.5C 178.242,181.091 179.742,188.424 178,196.5C 177.454,201.804 176.288,206.971 174.5,212C 175.523,214.177 175.69,216.344 175,218.5C 182.33,222.666 190.164,225.332 198.5,226.5C 198.67,227.822 198.337,228.989 197.5,230C 198.493,232.794 198.993,235.627 199,238.5C 192.927,242.619 186.427,243.453 179.5,241C 173.044,236.107 166.044,232.273 158.5,229.5C 158.372,231.655 158.872,233.655 160,235.5C 169.482,240.714 169.982,246.714 161.5,253.5 Z"/></g>
<g><path style="opacity:1" fill="#c1935f" d="M 156.5,13.5 C 156.929,20.2878 155.262,26.4544 151.5,32C 149.365,32.6347 147.365,32.3014 145.5,31C 142.618,27.6172 139.285,24.7838 135.5,22.5C 131.566,18.696 126.899,16.8626 121.5,17C 123.746,18.0395 125.913,19.2062 128,20.5C 131.347,26.1882 133.847,32.1882 135.5,38.5C 127.306,38.4736 120.806,35.1403 116,28.5C 113.237,22.6504 110.403,16.9837 107.5,11.5C 111.172,10.9794 114.838,10.3128 118.5,9.5C 120.024,7.14211 122.024,5.30878 124.5,4C 133.605,1.77769 142.605,2.11103 151.5,5C 154.596,7.02869 156.262,9.86203 156.5,13.5 Z"/></g>
<g><path style="opacity:1" fill="#ebebea" d="M 107.5,11.5 C 110.403,16.9837 113.237,22.6504 116,28.5C 120.806,35.1403 127.306,38.4736 135.5,38.5C 138.101,41.7983 139.434,45.6317 139.5,50C 138.933,61.5028 138.266,73.0028 137.5,84.5C 134.667,85.9332 131.667,86.5999 128.5,86.5C 128.335,83.4816 128.502,80.4816 129,77.5C 132.398,71.5717 134.065,65.2383 134,58.5C 133.086,56.3359 131.919,54.3359 130.5,52.5C 130.709,51.914 131.043,51.414 131.5,51C 128,50.5 126.5,52 127,55.5C 128.587,54.273 129.921,54.6063 131,56.5C 131.985,58.3659 132.485,60.3659 132.5,62.5C 131.099,68.7021 129.099,74.7021 126.5,80.5C 124.233,99.9805 113.567,106.981 94.5,101.5C 94.0375,96.8376 93.5375,92.1709 93,87.5C 88.6667,81.1667 84.3333,74.8333 80,68.5C 79.1099,64.6182 79.6099,60.9515 81.5,57.5C 82.3957,58.5063 83.0623,58.5063 83.5,57.5C 82.6519,56.0089 81.3186,55.3422 79.5,55.5C 76.6686,55.2904 76.1686,55.9571 78,57.5C 78.3333,61.8333 78.6667,66.1667 79,70.5C 82.6112,76.444 86.6112,82.1107 91,87.5C 91.6667,91.5 91.6667,95.5 91,99.5C 89.1239,100.609 87.2905,101.609 85.5,102.5C 83.8333,102.5 82.1667,102.5 80.5,102.5C 81.3871,96.8546 81.5538,91.188 81,85.5C 74.7396,71.836 72.4062,57.5026 74,42.5C 75.1764,40.8043 76.343,39.1376 77.5,37.5C 79.4459,36.7456 80.2793,35.4122 80,33.5C 78.8145,35.5593 77.6479,35.726 76.5,34C 77.3822,30.5592 77.7155,27.0592 77.5,23.5C 86.1202,16.1946 96.1202,12.1946 107.5,11.5 Z"/></g>
<g><path style="opacity:1" fill="#4790c7" d="M 253.5,30.5 C 252.167,30.5 250.833,30.5 249.5,30.5C 251.258,27.0284 251.758,23.3618 251,19.5C 250.605,23.0189 249.605,26.3522 248,29.5C 245.628,31.7032 243.461,34.0365 241.5,36.5C 236.72,37.9378 232.72,40.6045 229.5,44.5C 227.776,39.9385 228.443,35.9385 231.5,32.5C 231.821,34.0481 232.821,34.7148 234.5,34.5C 234.715,32.8212 234.048,31.8212 232.5,31.5C 238.497,27.015 244.664,22.6817 251,18.5C 251.772,18.6448 252.439,18.9781 253,19.5C 253.499,23.1516 253.665,26.8183 253.5,30.5 Z"/></g>
<g><path style="opacity:0.999" fill="#7c5e3d" d="M 156.5,13.5 C 157.656,20.9887 157.822,28.6554 157,36.5C 156.452,40.2868 155.286,43.7868 153.5,47C 151.741,47.7975 150.074,47.6309 148.5,46.5C 145.186,37.8658 140.852,29.8658 135.5,22.5C 139.285,24.7838 142.618,27.6172 145.5,31C 147.365,32.3014 149.365,32.6347 151.5,32C 155.262,26.4544 156.929,20.2878 156.5,13.5 Z"/></g>
<g><path style="opacity:1" fill="#6a4834" d="M 64.5,23.5 C 66.1992,23.3398 67.8659,23.5065 69.5,24C 58.528,28.4801 49.8614,35.6468 43.5,45.5C 41.8677,41.2247 42.3677,37.2247 45,33.5C 50.2823,27.7008 56.7823,24.3674 64.5,23.5 Z"/></g>
<g><path style="opacity:1" fill="#452f22" d="M 64.5,23.5 C 68.6869,22.3376 73.0202,22.3376 77.5,23.5C 77.7155,27.0592 77.3822,30.5592 76.5,34C 77.6479,35.726 78.8145,35.5593 80,33.5C 80.2793,35.4122 79.4459,36.7456 77.5,37.5C 77.44,36.9569 77.1067,36.6236 76.5,36.5C 71.5173,41.462 68.3506,47.462 67,54.5C 66.1027,60.8059 65.6027,67.1392 65.5,73.5C 62.9556,73.8957 60.7889,73.229 59,71.5C 54.0737,62.6403 48.907,53.9736 43.5,45.5C 49.8614,35.6468 58.528,28.4801 69.5,24C 67.8659,23.5065 66.1992,23.3398 64.5,23.5 Z"/></g>
<g><path style="opacity:0.914" fill="#213647" d="M 249.5,30.5 C 247.098,32.9092 244.431,34.9092 241.5,36.5C 243.461,34.0365 245.628,31.7032 248,29.5C 249.605,26.3522 250.605,23.0189 251,19.5C 251.758,23.3618 251.258,27.0284 249.5,30.5 Z"/></g>
<g><path style="opacity:0.996" fill="#e3e4e5" d="M 232.5,31.5 C 234.048,31.8212 234.715,32.8212 234.5,34.5C 232.821,34.7148 231.821,34.0481 231.5,32.5C 231.5,31.8333 231.833,31.5 232.5,31.5 Z"/></g>
<g><path style="opacity:0.993" fill="#c1c5c7" d="M 252.5,31.5 C 252.443,32.609 252.11,33.609 251.5,34.5C 249.952,34.1788 249.285,33.1788 249.5,31.5C 250.5,31.5 251.5,31.5 252.5,31.5 Z"/></g>
<g><path style="opacity:1" fill="#3e78a7" d="M 249.5,30.5 C 250.833,30.5 252.167,30.5 253.5,30.5C 253.5,31.1667 253.167,31.5 252.5,31.5C 251.5,31.5 250.5,31.5 249.5,31.5C 249.285,33.1788 249.952,34.1788 251.5,34.5C 248.901,39.4278 245.568,43.7611 241.5,47.5C 241.179,45.9519 240.179,45.2852 238.5,45.5C 238.263,46.791 238.596,47.791 239.5,48.5C 237.372,49.6291 235.039,49.7958 232.5,49C 231.572,48.6121 230.905,47.9454 230.5,47C 233.997,43.3364 237.664,39.8364 241.5,36.5C 244.431,34.9092 247.098,32.9092 249.5,30.5 Z"/></g>
<g><path style="opacity:1" fill="#5098cf" d="M 212.5,53.5 C 207.621,50.9637 203.287,47.6303 199.5,43.5C 198.63,40.622 197.297,37.9553 195.5,35.5C 208.786,34.4346 217.12,40.4346 220.5,53.5C 217.833,53.5 215.167,53.5 212.5,53.5 Z"/></g>
<g><path style="opacity:1" fill="#c49661" d="M 109.5,37.5 C 113.767,37.203 117.934,37.5363 122,38.5C 122.388,46.1847 122.055,53.8514 121,61.5C 113.239,67.9549 107.906,66.2883 105,56.5C 103.28,49.2827 104.78,42.9493 109.5,37.5 Z"/></g>
<g><path style="opacity:0.996" fill="#4d362a" d="M 265.5,40.5 C 266.833,40.5 268.167,40.5 269.5,40.5C 269.714,42.1439 269.38,43.6439 268.5,45C 260.262,48.1349 251.928,50.9682 243.5,53.5C 241.893,53.363 240.559,52.6964 239.5,51.5C 248.258,47.8107 256.924,44.144 265.5,40.5 Z"/></g>
<g><path style="opacity:1" fill="#3974a4" d="M 222.5,37.5 C 223.833,37.5 225.167,37.5 226.5,37.5C 226.666,41.5138 226.499,45.5138 226,49.5C 225.167,50.5 224.333,51.5 223.5,52.5C 217.674,47.637 217.34,42.637 222.5,37.5 Z"/></g>
<g><path style="opacity:1" fill="#dee8f2" d="M 221.5,41.5 C 222.5,41.5 223.5,41.5 224.5,41.5C 224.5,42.8333 224.5,44.1667 224.5,45.5C 223.5,45.5 222.5,45.5 221.5,45.5C 221.5,44.1667 221.5,42.8333 221.5,41.5 Z"/></g>
<g><path style="opacity:0.765" fill="#1d3141" d="M 199.5,43.5 C 203.287,47.6303 207.621,50.9637 212.5,53.5C 212.5,53.8333 212.5,54.1667 212.5,54.5C 207.033,52.5412 202.533,49.2079 199,44.5C 198.601,44.7284 198.435,45.0618 198.5,45.5C 195.64,41.8681 195.973,41.2014 199.5,43.5 Z"/></g>
<g><path style="opacity:1" fill="#e0ecf7" d="M 209.5,44.5 C 210.5,44.5 211.5,44.5 212.5,44.5C 212.5,45.8333 212.5,47.1667 212.5,48.5C 211.5,48.5 210.5,48.5 209.5,48.5C 209.5,47.1667 209.5,45.8333 209.5,44.5 Z"/></g>
<g><path style="opacity:1" fill="#c9cbcc" d="M 241.5,47.5 C 240.833,47.8333 240.167,48.1667 239.5,48.5C 238.596,47.791 238.263,46.791 238.5,45.5C 240.179,45.2852 241.179,45.9519 241.5,47.5 Z"/></g>
<g><path style="opacity:0.987" fill="#346f9e" d="M 212.5,54.5 C 214.482,54.9954 216.482,55.4954 218.5,56C 208.97,57.9726 202.303,54.4726 198.5,45.5C 198.435,45.0618 198.601,44.7284 199,44.5C 202.533,49.2079 207.033,52.5412 212.5,54.5 Z"/></g>
<g><path style="opacity:1" fill="#4b99d3" d="M 239.5,54.5 C 238.596,55.209 238.263,56.209 238.5,57.5C 239.791,57.7373 240.791,57.404 241.5,56.5C 249.568,60.8667 257.901,64.7 266.5,68C 270.269,71.7056 272.269,76.2056 272.5,81.5C 271.414,81.62 270.747,82.2867 270.5,83.5C 270.747,84.7133 271.414,85.38 272.5,85.5C 272.528,90.8617 272.194,96.1951 271.5,101.5C 278.968,112.327 277.968,122.161 268.5,131C 261.362,135.134 253.696,136.8 245.5,136C 244.333,134.833 243.167,133.667 242,132.5C 236.45,141.017 228.617,144.184 218.5,142C 215.621,139.615 212.621,137.448 209.5,135.5C 209.81,132.287 209.477,129.287 208.5,126.5C 211.387,126.067 213.887,124.733 216,122.5C 217.005,117.774 218.172,113.107 219.5,108.5C 219.5,107.5 219.5,106.5 219.5,105.5C 219.195,99.8188 220.028,94.1521 222,88.5C 223.836,84.1616 225.67,79.8283 227.5,75.5C 227.297,73.7923 226.464,72.459 225,71.5C 215.173,79.0049 207.339,88.1715 201.5,99C 200.212,99.2387 199.212,98.7387 198.5,97.5C 197.833,97.5 197.167,97.5 196.5,97.5C 204.514,86.8293 213.014,76.496 222,66.5C 224.157,64.1829 225.657,61.5162 226.5,58.5C 225.21,59.0577 224.377,60.0577 224,61.5C 222.725,53.7804 225.891,50.2804 233.5,51C 235.432,52.4585 237.432,53.6252 239.5,54.5 Z"/></g>
<g><path style="opacity:0.992" fill="#dfe2e5" d="M 239.5,54.5 C 240.5,54.8333 241.167,55.5 241.5,56.5C 241.167,55.5 240.5,54.8333 239.5,54.5 Z"/></g>
<g><path style="opacity:1" fill="#231c16" d="M 111.5,55.5 C 114.957,55.6672 115.29,56.6672 112.5,58.5C 111.614,57.675 111.281,56.675 111.5,55.5 Z"/></g>
<g><path style="opacity:0.765" fill="#151d24" d="M 226.5,58.5 C 226.461,57.2438 226.961,56.2438 228,55.5C 228.585,56.9976 228.085,57.9976 226.5,58.5 Z"/></g>
<g><path style="opacity:0.996" fill="#4b342a" d="M 215.5,58.5 C 219.241,57.5985 221.241,58.9319 221.5,62.5C 191.22,71.3714 161.22,81.038 131.5,91.5C 131.33,90.1779 131.663,89.0113 132.5,88C 142.895,84.8683 153.229,81.535 163.5,78C 164.587,74.4932 165.753,70.9932 167,67.5C 168.011,66.6634 169.178,66.33 170.5,66.5C 170.183,69.5719 170.516,72.5719 171.5,75.5C 186.58,70.59 201.247,64.9234 215.5,58.5 Z"/></g>
<g><path style="opacity:1" fill="#383431" d="M 96.5,59.5 C 97.3864,58.2241 98.3864,58.2241 99.5,59.5C 98.5754,60.5624 97.5754,60.5624 96.5,59.5 Z"/></g>
<g><path style="opacity:1" fill="#dfecf7" d="M 227.5,64.5 C 230.5,64.1667 231.833,65.5 231.5,68.5C 230.167,68.5 228.833,68.5 227.5,68.5C 227.5,67.1667 227.5,65.8333 227.5,64.5 Z"/></g>
<g><path style="opacity:1" fill="#deecf7" d="M 251.5,65.5 C 254.5,65.1667 255.833,66.5 255.5,69.5C 254.167,69.5 252.833,69.5 251.5,69.5C 251.5,68.1667 251.5,66.8333 251.5,65.5 Z"/></g>
<g><path style="opacity:1" fill="#67ade4" d="M 219.5,105.5 C 218.5,105.5 217.5,105.5 216.5,105.5C 216.5,106.5 216.5,107.5 216.5,108.5C 217.5,108.5 218.5,108.5 219.5,108.5C 218.172,113.107 217.005,117.774 216,122.5C 213.887,124.733 211.387,126.067 208.5,126.5C 207.596,127.209 207.263,128.209 207.5,129.5C 206.566,128.432 206.232,127.099 206.5,125.5C 201.833,124.833 197.167,124.167 192.5,123.5C 192.263,122.209 192.596,121.209 193.5,120.5C 194.183,122.176 195.517,122.843 197.5,122.5C 197.5,121.5 197.5,120.5 197.5,119.5C 196.167,119.5 194.833,119.5 193.5,119.5C 194.192,113.236 196.192,107.403 199.5,102C 198.944,101.617 198.611,101.117 198.5,100.5C 198.5,99.5 198.5,98.5 198.5,97.5C 199.212,98.7387 200.212,99.2387 201.5,99C 207.339,88.1715 215.173,79.0049 225,71.5C 226.464,72.459 227.297,73.7923 227.5,75.5C 225.67,79.8283 223.836,84.1616 222,88.5C 220.028,94.1521 219.195,99.8188 219.5,105.5 Z"/></g>
<g><path style="opacity:1" fill="#201e1c" d="M 104.5,77.5 C 122.614,76.0759 125.947,82.2425 114.5,96C 104.401,97.2371 99.2341,92.7371 99,82.5C 100.812,80.6997 102.645,79.0331 104.5,77.5 Z"/></g>
<g><path style="opacity:1" fill="#483224" d="M 108.5,79.5 C 111.881,79.4595 115.214,79.7929 118.5,80.5C 118.701,86.9318 116.034,91.5984 110.5,94.5C 108.459,92.6474 106.126,91.1474 103.5,90C 100.638,88.2141 99.9717,85.8808 101.5,83C 103.925,81.7874 106.259,80.6207 108.5,79.5 Z"/></g>
<g><path style="opacity:1" fill="#dfedf8" d="M 213.5,83.5 C 214.833,83.5 216.167,83.5 217.5,83.5C 217.5,84.8333 217.5,86.1667 217.5,87.5C 216.167,87.5 214.833,87.5 213.5,87.5C 213.5,86.1667 213.5,84.8333 213.5,83.5 Z"/></g>
<g><path style="opacity:1" fill="#e2eef8" d="M 233.5,83.5 C 235.346,83.2222 236.68,83.8888 237.5,85.5C 236.68,87.1112 235.346,87.7778 233.5,87.5C 233.5,86.1667 233.5,84.8333 233.5,83.5 Z"/></g>
<g><path style="opacity:0.992" fill="#c7cdd1" d="M 272.5,81.5 C 273.686,82.9613 273.686,84.2946 272.5,85.5C 271.414,85.38 270.747,84.7133 270.5,83.5C 270.747,82.2867 271.414,81.62 272.5,81.5 Z"/></g>
<g><path style="opacity:0.698" fill="#222222" d="M 94.5,101.5 C 94.1367,103.911 95.1367,105.411 97.5,106C 102.155,106.499 106.821,106.666 111.5,106.5C 107.833,107.167 104.167,107.833 100.5,108.5C 97.4648,107.266 94.4648,107.266 91.5,108.5C 91.5,107.833 91.1667,107.5 90.5,107.5C 92.4318,106.024 92.7652,104.357 91.5,102.5C 90.1667,102.5 88.8333,102.5 87.5,102.5C 86.8333,102.5 86.1667,102.5 85.5,102.5C 87.2905,101.609 89.1239,100.609 91,99.5C 91.6667,95.5 91.6667,91.5 91,87.5C 86.6112,82.1107 82.6112,76.444 79,70.5C 78.6667,66.1667 78.3333,61.8333 78,57.5C 76.1686,55.9571 76.6686,55.2904 79.5,55.5C 81.3186,55.3422 82.6519,56.0089 83.5,57.5C 83.0623,58.5063 82.3957,58.5063 81.5,57.5C 79.6099,60.9515 79.1099,64.6182 80,68.5C 84.3333,74.8333 88.6667,81.1667 93,87.5C 93.5375,92.1709 94.0375,96.8376 94.5,101.5 Z"/></g>
<g><path style="opacity:1" fill="#397aac" d="M 209.5,137.5 C 209.5,136.833 209.5,136.167 209.5,135.5C 212.621,137.448 215.621,139.615 218.5,142C 228.617,144.184 236.45,141.017 242,132.5C 243.167,133.667 244.333,134.833 245.5,136C 253.696,136.8 261.362,135.134 268.5,131C 277.968,122.161 278.968,112.327 271.5,101.5C 273.739,96.5176 274.739,91.1843 274.5,85.5C 286.999,90.5083 294.665,99.675 297.5,113C 296.102,121.893 291.102,127.393 282.5,129.5C 283.167,127.181 283.334,124.847 283,122.5C 280.093,132.406 273.593,138.573 263.5,141C 257.833,141.667 252.167,141.667 246.5,141C 244.622,139.457 243.122,137.624 242,135.5C 241.333,136.5 241.333,137.5 242,138.5C 243.022,139.354 243.855,140.354 244.5,141.5C 241.779,143.527 238.779,145.027 235.5,146C 228.751,146.877 222.084,146.544 215.5,145C 212.879,142.886 210.879,140.386 209.5,137.5 Z"/></g>
<g><path style="opacity:1" fill="#b3b5b7" d="M 126.5,80.5 C 127.64,85.4417 128.14,90.4417 128,95.5C 124.436,102.255 118.936,105.922 111.5,106.5C 106.821,106.666 102.155,106.499 97.5,106C 95.1367,105.411 94.1367,103.911 94.5,101.5C 113.567,106.981 124.233,99.9805 126.5,80.5 Z"/></g>
<g><path style="opacity:1" fill="#eeeeee" d="M 154.5,116.5 C 156.187,135.928 155.354,155.261 152,174.5C 151.667,195.167 151.333,215.833 151,236.5C 150.588,238.997 149.422,240.997 147.5,242.5C 146.824,241.398 146.158,240.398 145.5,239.5C 144.656,222.82 143.656,206.153 142.5,189.5C 142.193,180.097 141.359,170.763 140,161.5C 135.125,150.061 126.459,144.394 114,144.5C 109.469,144.719 104.969,145.219 100.5,146C 90.3682,149.569 80.3682,153.402 70.5,157.5C 68.8597,150.936 67.8597,144.269 67.5,137.5C 67.5508,121.126 75.5508,111.459 91.5,108.5C 94.4648,107.266 97.4648,107.266 100.5,108.5C 113.838,111.33 123.838,106.83 130.5,95C 133.732,93.5512 137.065,92.3845 140.5,91.5C 146.947,98.7171 151.614,107.05 154.5,116.5 Z"/></g>
<g><path style="opacity:1" fill="#deecf7" d="M 251.5,94.5 C 254.5,94.1667 255.833,95.5 255.5,98.5C 254.167,98.5 252.833,98.5 251.5,98.5C 251.5,97.1667 251.5,95.8333 251.5,94.5 Z"/></g>
<g><path style="opacity:0.999" fill="#eaecec" d="M 196.5,97.5 C 197.167,97.5 197.833,97.5 198.5,97.5C 198.5,98.5 198.5,99.5 198.5,100.5C 197.209,100.737 196.209,100.404 195.5,99.5C 195.833,98.8333 196.167,98.1667 196.5,97.5 Z"/></g>
<g><path style="opacity:1" fill="#9ebeda" d="M 276.5,100.5 C 277.833,100.5 279.167,100.5 280.5,100.5C 280.5,101.833 280.5,103.167 280.5,104.5C 279.167,104.5 277.833,104.5 276.5,104.5C 276.5,103.167 276.5,101.833 276.5,100.5 Z"/></g>
<g><path style="opacity:1" fill="#4892c9" d="M 195.5,99.5 C 196.209,100.404 197.209,100.737 198.5,100.5C 198.611,101.117 198.944,101.617 199.5,102C 196.192,107.403 194.192,113.236 193.5,119.5C 193.5,119.833 193.5,120.167 193.5,120.5C 192.596,121.209 192.263,122.209 192.5,123.5C 197.167,124.167 201.833,124.833 206.5,125.5C 206.232,127.099 206.566,128.432 207.5,129.5C 207.111,132.553 207.777,135.22 209.5,137.5C 209.673,140.179 210.673,142.513 212.5,144.5C 202.18,148.334 194.347,145.334 189,135.5C 185.265,122.263 187.432,110.263 195.5,99.5 Z"/></g>
<g><path style="opacity:0.988" fill="#523a2e" d="M 87.5,102.5 C 88.8333,102.5 90.1667,102.5 91.5,102.5C 90.7813,104.888 89.1146,106.388 86.5,107C 62.5,115 38.5,123 14.5,131C 11.1727,131.61 7.83939,132.11 4.5,132.5C 5.05773,131.21 6.05773,130.377 7.5,130C 34.4622,121.292 61.1289,112.125 87.5,102.5 Z"/></g>
<g><path style="opacity:0.996" fill="#ebeced" d="M 219.5,105.5 C 219.5,106.5 219.5,107.5 219.5,108.5C 218.5,108.5 217.5,108.5 216.5,108.5C 216.5,107.5 216.5,106.5 216.5,105.5C 217.5,105.5 218.5,105.5 219.5,105.5 Z"/></g>
<g><path style="opacity:1" fill="#e2eef8" d="M 246.5,112.5 C 247.833,112.5 249.167,112.5 250.5,112.5C 250.5,113.5 250.5,114.5 250.5,115.5C 249.167,115.5 247.833,115.5 246.5,115.5C 246.5,114.5 246.5,113.5 246.5,112.5 Z"/></g>
<g><path style="opacity:1" fill="#d9eaf7" d="M 266.5,114.5 C 269.5,114.167 270.833,115.5 270.5,118.5C 269.167,118.5 267.833,118.5 266.5,118.5C 266.5,117.167 266.5,115.833 266.5,114.5 Z"/></g>
<g><path style="opacity:0.992" fill="#e6eaed" d="M 193.5,119.5 C 194.833,119.5 196.167,119.5 197.5,119.5C 197.5,120.5 197.5,121.5 197.5,122.5C 195.517,122.843 194.183,122.176 193.5,120.5C 193.5,120.167 193.5,119.833 193.5,119.5 Z"/></g>
<g><path style="opacity:0.986" fill="#3a291f" d="M 91.5,102.5 C 92.7652,104.357 92.4318,106.024 90.5,107.5C 63.7337,116.367 37.067,125.533 10.5,135C 8.5273,135.495 6.5273,135.662 4.5,135.5C 4.5,134.5 4.5,133.5 4.5,132.5C 7.83939,132.11 11.1727,131.61 14.5,131C 38.5,123 62.5,115 86.5,107C 89.1146,106.388 90.7813,104.888 91.5,102.5 Z"/></g>
<g><path style="opacity:1" fill="#e4eff9" d="M 228.5,121.5 C 229.833,121.5 231.167,121.5 232.5,121.5C 232.5,122.5 232.5,123.5 232.5,124.5C 231.167,124.5 229.833,124.5 228.5,124.5C 228.5,123.5 228.5,122.5 228.5,121.5 Z"/></g>
<g><path style="opacity:0.776" fill="#203749" d="M 208.5,126.5 C 209.477,129.287 209.81,132.287 209.5,135.5C 209.5,136.167 209.5,136.833 209.5,137.5C 207.777,135.22 207.111,132.553 207.5,129.5C 207.263,128.209 207.596,127.209 208.5,126.5 Z"/></g>
<g><path style="opacity:0.996" fill="#e4e6e8" d="M 201.5,138.5 C 202.833,138.5 204.167,138.5 205.5,138.5C 205.5,139.5 205.5,140.5 205.5,141.5C 204.167,141.5 202.833,141.5 201.5,141.5C 201.5,140.5 201.5,139.5 201.5,138.5 Z"/></g>
<g><path style="opacity:1" fill="#463023" d="M 142.5,189.5 C 141.549,190.919 141.216,192.585 141.5,194.5C 141.167,194.5 140.833,194.5 140.5,194.5C 140.5,189.833 140.5,185.167 140.5,180.5C 140.747,177.061 140.414,173.728 139.5,170.5C 140.598,169.399 140.765,168.066 140,166.5C 123.334,175.408 106.501,175.742 89.5,167.5C 88.0586,178.264 87.0586,188.931 86.5,199.5C 86.5,197.833 86.5,196.167 86.5,194.5C 82.5619,193.781 79.0619,192.115 76,189.5C 75.5014,193.152 75.3347,196.818 75.5,200.5C 74.6697,190.341 74.1697,180.008 74,169.5C 73.2688,165.323 72.1022,161.323 70.5,157.5C 80.3682,153.402 90.3682,149.569 100.5,146C 104.969,145.219 109.469,144.719 114,144.5C 126.459,144.394 135.125,150.061 140,161.5C 141.359,170.763 142.193,180.097 142.5,189.5 Z"/></g>
<g><path style="opacity:1" fill="#b1b3b4" d="M 139.5,170.5 C 140.414,173.728 140.747,177.061 140.5,180.5C 139.691,178.708 139.191,176.708 139,174.5C 135.601,175.893 132.101,177.06 128.5,178C 117.81,179.535 107.144,181.202 96.5,183C 95.1068,184.171 94.2735,185.671 94,187.5C 91.5129,197.14 91.1795,206.807 93,216.5C 107.93,219.432 122.763,218.765 137.5,214.5C 138.647,214.182 139.481,213.516 140,212.5C 140.499,206.509 140.666,200.509 140.5,194.5C 140.833,194.5 141.167,194.5 141.5,194.5C 141.538,203.846 141.871,213.18 142.5,222.5C 124.479,227.524 106.145,228.857 87.5,226.5C 87.7305,207.787 88.7305,189.12 90.5,170.5C 106.462,177.43 122.295,177.097 138,169.5C 138.765,169.57 139.265,169.903 139.5,170.5 Z"/></g>
<g><path style="opacity:1" fill="#eceded" d="M 72.5,185.5 C 72.6665,197.505 72.4999,209.505 72,221.5C 64.3082,229.103 55.1415,232.936 44.5,233C 43.5,232 42.5,231 41.5,230C 43.0581,229.79 44.3915,229.29 45.5,228.5C 61.0285,225.446 65.1952,217.113 58,203.5C 54.836,189.805 59.0027,179.138 70.5,171.5C 72.2168,175.991 72.8835,180.657 72.5,185.5 Z"/></g>
<g><path style="opacity:1" fill="#eff0f0" d="M 140.5,180.5 C 140.5,185.167 140.5,189.833 140.5,194.5C 140.666,200.509 140.499,206.509 140,212.5C 139.481,213.516 138.647,214.182 137.5,214.5C 122.763,218.765 107.93,219.432 93,216.5C 91.1795,206.807 91.5129,197.14 94,187.5C 94.2735,185.671 95.1068,184.171 96.5,183C 107.144,181.202 117.81,179.535 128.5,178C 132.101,177.06 135.601,175.893 139,174.5C 139.191,176.708 139.691,178.708 140.5,180.5 Z"/></g>
<g><path style="opacity:1" fill="#edeeee" d="M 172.5,203.5 C 171.341,208.79 170.841,214.123 171,219.5C 176.283,223.392 182.117,226.059 188.5,227.5C 189.706,228.88 189.373,230.047 187.5,231C 176.198,231.77 166.698,227.936 159,219.5C 158.333,209.833 158.333,200.167 159,190.5C 159.13,186.049 159.796,181.716 161,177.5C 168.601,184.461 172.435,193.128 172.5,203.5 Z"/></g>
<g><path style="opacity:0.996" fill="#e8eaeb" d="M 86.5,199.5 C 86.7054,205.878 86.3721,212.211 85.5,218.5C 83.6962,226.306 82.1962,234.306 81,242.5C 77.6727,245.154 73.8394,246.154 69.5,245.5C 66.0554,246.806 64.8887,245.472 66,241.5C 68.8959,239.467 72.0626,238.134 75.5,237.5C 75.5,225.167 75.5,212.833 75.5,200.5C 75.3347,196.818 75.5014,193.152 76,189.5C 79.0619,192.115 82.5619,193.781 86.5,194.5C 86.5,196.167 86.5,197.833 86.5,199.5 Z"/></g>
<g><path style="opacity:1" fill="#b2b4b5" d="M 172.5,203.5 C 172.435,193.128 168.601,184.461 161,177.5C 159.796,181.716 159.13,186.049 159,190.5C 158.333,200.167 158.333,209.833 159,219.5C 166.698,227.936 176.198,231.77 187.5,231C 189.373,230.047 189.706,228.88 188.5,227.5C 193.993,227.948 195.993,230.948 194.5,236.5C 193.178,236.67 192.011,236.337 191,235.5C 190.31,239.19 188.143,240.357 184.5,239C 175.532,234.181 166.532,229.348 157.5,224.5C 156.334,210.178 156.167,195.845 157,181.5C 157.145,177.009 157.979,172.676 159.5,168.5C 173.526,176.581 177.86,188.247 172.5,203.5 Z"/></g>
<g><path style="opacity:1" fill="#aaacad" d="M 72.5,185.5 C 73.3449,194.665 74.0115,203.998 74.5,213.5C 74.3845,217.22 73.8845,220.887 73,224.5C 66.086,229.375 58.9193,233.875 51.5,238C 47.6809,238.069 44.0142,238.236 40.5,238.5C 40.1231,235.475 39.9565,232.475 40,229.5C 41.6995,228.594 43.5328,228.261 45.5,228.5C 44.3915,229.29 43.0581,229.79 41.5,230C 42.5,231 43.5,232 44.5,233C 55.1415,232.936 64.3082,229.103 72,221.5C 72.4999,209.505 72.6665,197.505 72.5,185.5 Z"/></g>
<g><path style="opacity:0.999" fill="#b2b4b6" d="M 85.5,218.5 C 85.6449,227.203 85.1449,235.87 84,244.5C 81.3273,247.002 78.3273,249.002 75,250.5C 74.0546,250.095 73.3879,249.428 73,248.5C 71.1862,249.76 69.3529,249.76 67.5,248.5C 68.1925,247.482 68.8592,246.482 69.5,245.5C 73.8394,246.154 77.6727,245.154 81,242.5C 82.1962,234.306 83.6962,226.306 85.5,218.5 Z"/></g>
<g><path style="opacity:0.999" fill="#b1b3b5" d="M 154.5,116.5 C 159.402,122.538 161.735,129.538 161.5,137.5C 160.782,148.7 158.949,159.7 156,170.5C 154.727,192.819 153.894,215.152 153.5,237.5C 161,238.313 164.333,242.313 163.5,249.5C 159.412,250.921 155.412,250.755 151.5,249C 149.957,247.122 148.124,245.622 146,244.5C 145.506,242.866 145.34,241.199 145.5,239.5C 146.158,240.398 146.824,241.398 147.5,242.5C 149.422,240.997 150.588,238.997 151,236.5C 151.333,215.833 151.667,195.167 152,174.5C 155.354,155.261 156.187,135.928 154.5,116.5 Z"/></g>
</svg>
